<svg width="102" height="92" viewBox="0 0 102 92" fill="none" xmlns="http://www.w3.org/2000/svg">
<path d="M51 91L50.7475 91.4316L51 91.5793L51.2525 91.4316L51 91ZM50.5 23.5C50.5 23.7761 50.7239 24 51 24C51.2761 24 51.5 23.7761 51.5 23.5H50.5ZM6.67113 46L6.22251 46.2208L6.22251 46.2208L6.67113 46ZM95.3289 46L95.7775 46.2208L95.7775 46.2208L95.3289 46ZM1.5 23.5C1.5 19.8415 2.72402 14.3329 6.39043 9.74985C10.0395 5.18856 16.1419 1.5 26 1.5V0.5C15.8581 0.5 9.46054 4.31144 5.60957 9.12515C1.77598 13.9171 0.5 19.6585 0.5 23.5H1.5ZM26 1.5C30.0966 1.5 36.2454 2.60979 41.3531 5.9196C46.4339 9.21194 50.5 14.6862 50.5 23.5H51.5C51.5 14.3138 47.2328 8.53806 41.8969 5.0804C36.588 1.64021 30.2368 0.5 26 0.5V1.5ZM6.22251 46.2208C16.5262 67.1588 38.2906 84.1443 50.7475 91.4316L51.2525 90.5684C38.8742 83.3271 17.2998 66.4662 7.11975 45.7792L6.22251 46.2208ZM7.11975 45.7792C3.64059 38.7092 1.5 31.2078 1.5 23.5H0.5C0.5 31.3948 2.69251 39.0475 6.22251 46.2208L7.11975 45.7792ZM101.5 23.5C101.5 19.6585 100.224 13.9171 96.3904 9.12515C92.5395 4.31144 86.1419 0.5 76 0.5V1.5C85.8581 1.5 91.9605 5.18856 95.6096 9.74985C99.276 14.3329 100.5 19.8415 100.5 23.5H101.5ZM76 0.5C71.7632 0.5 65.412 1.64021 60.1031 5.0804C54.7672 8.53806 50.5 14.3138 50.5 23.5H51.5C51.5 14.6862 55.5661 9.21194 60.6469 5.9196C65.7546 2.60979 71.9034 1.5 76 1.5V0.5ZM94.8803 45.7792C84.7002 66.4662 63.1258 83.3271 50.7475 90.5684L51.2525 91.4316C63.7094 84.1443 85.4738 67.1588 95.7775 46.2208L94.8803 45.7792ZM95.7775 46.2208C99.3075 39.0475 101.5 31.3948 101.5 23.5H100.5C100.5 31.2078 98.3594 38.7092 94.8803 45.7792L95.7775 46.2208Z" fill="white"/>
</svg>
