<svg width="184" height="22" viewBox="0 0 184 22" fill="none" xmlns="http://www.w3.org/2000/svg">
<path d="M0.830017 21.42V0.12H10.61C11.65 0.12 12.61 0.34 13.49 0.780001C14.37 1.2 15.12 1.76 15.74 2.46C16.38 3.14 16.88 3.93 17.24 4.83C17.6 5.71 17.78 6.6 17.78 7.5C17.78 8.74 17.51 9.9 16.97 10.98C16.43 12.04 15.68 12.91 14.72 13.59L19.22 21.42H12.62L8.87002 14.88H6.68002V21.42H0.830017ZM6.68002 9.78H10.37C10.73 9.78 11.06 9.58 11.36 9.18C11.68 8.78 11.84 8.22 11.84 7.5C11.84 6.76 11.66 6.2 11.3 5.82C10.94 5.42 10.58 5.22 10.22 5.22H6.68002V9.78Z" fill="white"/>
<path d="M30.4105 21.6C28.7905 21.6 27.3205 21.29 26.0005 20.67C24.6805 20.05 23.5505 19.24 22.6105 18.24C21.6705 17.22 20.9405 16.06 20.4205 14.76C19.9005 13.46 19.6405 12.12 19.6405 10.74C19.6405 9.34 19.9105 7.99 20.4505 6.69C20.9905 5.39 21.7405 4.25 22.7005 3.27C23.6805 2.27 24.8305 1.48 26.1505 0.900001C27.4905 0.3 28.9505 0 30.5305 0C32.1505 0 33.6205 0.31 34.9405 0.930001C36.2605 1.55 37.3905 2.37 38.3305 3.39C39.2705 4.41 39.9905 5.57 40.4905 6.87C41.0105 8.17 41.2705 9.5 41.2705 10.86C41.2705 12.26 41.0005 13.61 40.4605 14.91C39.9205 16.19 39.1705 17.33 38.2105 18.33C37.2505 19.31 36.1005 20.1 34.7605 20.7C33.4405 21.3 31.9905 21.6 30.4105 21.6ZM25.5805 10.8C25.5805 11.52 25.6805 12.22 25.8805 12.9C26.0805 13.56 26.3805 14.15 26.7805 14.67C27.1805 15.19 27.6805 15.61 28.2805 15.93C28.9005 16.25 29.6305 16.41 30.4705 16.41C31.3105 16.41 32.0405 16.25 32.6605 15.93C33.2805 15.59 33.7805 15.16 34.1605 14.64C34.5605 14.1 34.8505 13.49 35.0305 12.81C35.2305 12.13 35.3305 11.44 35.3305 10.74C35.3305 10.02 35.2305 9.33 35.0305 8.67C34.8305 7.99 34.5205 7.4 34.1005 6.9C33.7005 6.38 33.1905 5.97 32.5705 5.67C31.9705 5.35 31.2605 5.19 30.4405 5.19C29.6005 5.19 28.8705 5.35 28.2505 5.67C27.6505 5.99 27.1505 6.42 26.7505 6.96C26.3505 7.48 26.0505 8.08 25.8505 8.76C25.6705 9.42 25.5805 10.1 25.5805 10.8Z" fill="white"/>
<path d="M43.7499 21.42V0.12H49.5999V8.22L56.0799 0.12H62.6799L54.9399 9.66L63.2199 21.42H56.4999L51.2199 13.59L49.5999 15.27V21.42H43.7499Z" fill="white"/>
<path d="M73.7628 16.41C74.4428 16.41 75.0228 16.26 75.5028 15.96C75.9828 15.66 76.3728 15.27 76.6728 14.79C76.9728 14.29 77.1928 13.72 77.3328 13.08C77.4728 12.44 77.5428 11.77 77.5428 11.07V0.12H83.3928V11.07C83.3928 12.55 83.2028 13.94 82.8228 15.24C82.4428 16.52 81.8528 17.63 81.0528 18.57C80.2528 19.51 79.2428 20.25 78.0228 20.79C76.8228 21.33 75.4028 21.6 73.7628 21.6C72.0628 21.6 70.6028 21.32 69.3828 20.76C68.1828 20.18 67.1928 19.41 66.4128 18.45C65.6328 17.49 65.0628 16.38 64.7028 15.12C64.3428 13.84 64.1628 12.49 64.1628 11.07V0.12H70.0128V11.07C70.0128 11.77 70.0828 12.45 70.2228 13.11C70.3628 13.75 70.5828 14.32 70.8828 14.82C71.1828 15.3 71.5628 15.69 72.0228 15.99C72.5028 16.27 73.0828 16.41 73.7628 16.41Z" fill="white"/>
<path d="M91.86 21.42V7.22001H101.1V8.14001H92.88V13.78H99.86V14.66H92.88V21.42H91.86Z" fill="white"/>
<path d="M103.515 6.82001H104.535V19.36C104.535 19.7467 104.642 20.0533 104.855 20.28C105.082 20.5067 105.388 20.62 105.775 20.62C105.922 20.62 106.095 20.6067 106.295 20.58C106.508 20.54 106.702 20.4867 106.875 20.42L107.075 21.22C106.848 21.3133 106.568 21.3867 106.235 21.44C105.902 21.5067 105.615 21.54 105.375 21.54C104.815 21.54 104.362 21.3733 104.015 21.04C103.682 20.6933 103.515 20.2333 103.515 19.66V6.82001Z" fill="white"/>
<path d="M111.171 21.62C110.691 21.62 110.244 21.54 109.831 21.38C109.417 21.2067 109.051 20.98 108.731 20.7C108.424 20.4067 108.184 20.0667 108.011 19.68C107.837 19.28 107.751 18.8533 107.751 18.4C107.751 17.9467 107.857 17.5333 108.071 17.16C108.284 16.7867 108.577 16.4667 108.951 16.2C109.337 15.92 109.797 15.7067 110.331 15.56C110.864 15.4 111.451 15.32 112.091 15.32C112.651 15.32 113.211 15.3733 113.771 15.48C114.344 15.5733 114.857 15.7067 115.311 15.88V14.86C115.311 13.8733 115.031 13.0933 114.471 12.52C113.911 11.9333 113.151 11.64 112.191 11.64C111.684 11.64 111.144 11.7467 110.571 11.96C110.011 12.1733 109.437 12.48 108.851 12.88L108.471 12.2C109.804 11.2933 111.071 10.84 112.271 10.84C113.524 10.84 114.511 11.2067 115.231 11.94C115.951 12.66 116.311 13.66 116.311 14.94V20.02C116.311 20.3533 116.457 20.52 116.751 20.52V21.42C116.684 21.4333 116.611 21.44 116.531 21.44C116.464 21.4533 116.404 21.46 116.351 21.46C116.084 21.46 115.871 21.3733 115.711 21.2C115.551 21.0133 115.457 20.7933 115.431 20.54V19.68C114.951 20.3067 114.337 20.7867 113.591 21.12C112.844 21.4533 112.037 21.62 111.171 21.62ZM111.371 20.82C112.144 20.82 112.851 20.6733 113.491 20.38C114.144 20.0867 114.644 19.7 114.991 19.22C115.204 18.94 115.311 18.6733 115.311 18.42V16.58C114.831 16.3933 114.331 16.2533 113.811 16.16C113.291 16.0667 112.751 16.02 112.191 16.02C111.671 16.02 111.197 16.08 110.771 16.2C110.344 16.3067 109.977 16.46 109.671 16.66C109.364 16.86 109.124 17.1067 108.951 17.4C108.791 17.68 108.711 17.9933 108.711 18.34C108.711 18.6867 108.777 19.0133 108.911 19.32C109.044 19.6267 109.231 19.8933 109.471 20.12C109.711 20.3333 109.991 20.5067 110.311 20.64C110.644 20.76 110.997 20.82 111.371 20.82Z" fill="white"/>
<path d="M122.653 21.62C121.853 21.62 121.086 21.4867 120.353 21.22C119.62 20.9533 118.98 20.5533 118.433 20.02L118.933 19.34C119.493 19.8467 120.073 20.22 120.673 20.46C121.273 20.7 121.933 20.82 122.653 20.82C123.56 20.82 124.286 20.6333 124.833 20.26C125.393 19.8733 125.673 19.34 125.673 18.66C125.673 18.34 125.6 18.0733 125.453 17.86C125.32 17.6333 125.113 17.4467 124.833 17.3C124.553 17.14 124.206 17 123.793 16.88C123.38 16.76 122.9 16.6333 122.353 16.5C121.766 16.3667 121.253 16.2333 120.813 16.1C120.386 15.9667 120.033 15.8067 119.753 15.62C119.473 15.4333 119.26 15.2067 119.113 14.94C118.98 14.6733 118.913 14.3333 118.913 13.92C118.913 13.4 119.013 12.9467 119.213 12.56C119.413 12.1733 119.686 11.8533 120.033 11.6C120.393 11.3467 120.8 11.16 121.253 11.04C121.72 10.9067 122.213 10.84 122.733 10.84C123.546 10.84 124.266 10.98 124.893 11.26C125.52 11.5267 126.006 11.8733 126.353 12.3L125.793 12.84C125.446 12.44 124.993 12.14 124.433 11.94C123.886 11.74 123.3 11.64 122.673 11.64C122.286 11.64 121.92 11.68 121.573 11.76C121.24 11.84 120.946 11.9667 120.693 12.14C120.44 12.3133 120.24 12.54 120.093 12.82C119.946 13.0867 119.873 13.4067 119.873 13.78C119.873 14.0867 119.92 14.3333 120.013 14.52C120.12 14.7067 120.28 14.8667 120.493 15C120.72 15.1333 121.006 15.2533 121.353 15.36C121.7 15.4533 122.113 15.56 122.593 15.68C123.246 15.84 123.826 15.9933 124.333 16.14C124.84 16.2867 125.26 16.4667 125.593 16.68C125.94 16.8933 126.2 17.1467 126.373 17.44C126.56 17.7333 126.653 18.1067 126.653 18.56C126.653 19.4933 126.286 20.24 125.553 20.8C124.833 21.3467 123.866 21.62 122.653 21.62Z" fill="white"/>
<path d="M137.482 21.42H136.482V15.62C136.482 13.0467 135.622 11.76 133.902 11.76C133.475 11.76 133.055 11.84 132.642 12C132.242 12.16 131.862 12.3867 131.502 12.68C131.155 12.9733 130.849 13.32 130.582 13.72C130.315 14.1067 130.115 14.5267 129.982 14.98V21.42H128.982V6.82001H129.982V13.5C130.409 12.6867 130.995 12.04 131.742 11.56C132.502 11.08 133.315 10.84 134.182 10.84C134.755 10.84 135.249 10.9467 135.662 11.16C136.075 11.3733 136.415 11.68 136.682 12.08C136.962 12.48 137.162 12.9667 137.282 13.54C137.415 14.1 137.482 14.7333 137.482 15.44V21.42Z" fill="white"/>
<path d="M145.365 21.62C144.552 21.62 143.792 21.4067 143.085 20.98C142.379 20.5533 141.825 20.0067 141.425 19.34V21.42H140.505V6.82001H141.505V13.28C141.999 12.56 142.579 11.9733 143.245 11.52C143.925 11.0667 144.705 10.84 145.585 10.84C146.319 10.84 146.979 11 147.565 11.32C148.165 11.6267 148.665 12.04 149.065 12.56C149.479 13.0667 149.792 13.6467 150.005 14.3C150.232 14.94 150.345 15.5933 150.345 16.26C150.345 16.98 150.219 17.6667 149.965 18.32C149.712 18.96 149.359 19.5267 148.905 20.02C148.465 20.5 147.939 20.8867 147.325 21.18C146.725 21.4733 146.072 21.62 145.365 21.62ZM145.165 20.72C145.779 20.72 146.339 20.5933 146.845 20.34C147.352 20.0867 147.785 19.7533 148.145 19.34C148.519 18.9133 148.805 18.4333 149.005 17.9C149.219 17.3667 149.325 16.82 149.325 16.26C149.325 15.6733 149.225 15.1133 149.025 14.58C148.839 14.0333 148.565 13.5533 148.205 13.14C147.859 12.7133 147.439 12.3733 146.945 12.12C146.465 11.8667 145.932 11.74 145.345 11.74C144.905 11.74 144.492 11.82 144.105 11.98C143.719 12.1267 143.359 12.3267 143.025 12.58C142.705 12.8333 142.412 13.1267 142.145 13.46C141.892 13.7933 141.679 14.14 141.505 14.5V17.94C141.545 18.3267 141.692 18.6933 141.945 19.04C142.199 19.3733 142.499 19.6667 142.845 19.92C143.205 20.16 143.592 20.3533 144.005 20.5C144.419 20.6467 144.805 20.72 145.165 20.72Z" fill="white"/>
<path d="M155.311 21.62C154.831 21.62 154.385 21.54 153.971 21.38C153.558 21.2067 153.191 20.98 152.871 20.7C152.565 20.4067 152.325 20.0667 152.151 19.68C151.978 19.28 151.891 18.8533 151.891 18.4C151.891 17.9467 151.998 17.5333 152.211 17.16C152.425 16.7867 152.718 16.4667 153.091 16.2C153.478 15.92 153.938 15.7067 154.471 15.56C155.005 15.4 155.591 15.32 156.231 15.32C156.791 15.32 157.351 15.3733 157.911 15.48C158.485 15.5733 158.998 15.7067 159.451 15.88V14.86C159.451 13.8733 159.171 13.0933 158.611 12.52C158.051 11.9333 157.291 11.64 156.331 11.64C155.825 11.64 155.285 11.7467 154.711 11.96C154.151 12.1733 153.578 12.48 152.991 12.88L152.611 12.2C153.945 11.2933 155.211 10.84 156.411 10.84C157.665 10.84 158.651 11.2067 159.371 11.94C160.091 12.66 160.451 13.66 160.451 14.94V20.02C160.451 20.3533 160.598 20.52 160.891 20.52V21.42C160.825 21.4333 160.751 21.44 160.671 21.44C160.605 21.4533 160.545 21.46 160.491 21.46C160.225 21.46 160.011 21.3733 159.851 21.2C159.691 21.0133 159.598 20.7933 159.571 20.54V19.68C159.091 20.3067 158.478 20.7867 157.731 21.12C156.985 21.4533 156.178 21.62 155.311 21.62ZM155.511 20.82C156.285 20.82 156.991 20.6733 157.631 20.38C158.285 20.0867 158.785 19.7 159.131 19.22C159.345 18.94 159.451 18.6733 159.451 18.42V16.58C158.971 16.3933 158.471 16.2533 157.951 16.16C157.431 16.0667 156.891 16.02 156.331 16.02C155.811 16.02 155.338 16.08 154.911 16.2C154.485 16.3067 154.118 16.46 153.811 16.66C153.505 16.86 153.265 17.1067 153.091 17.4C152.931 17.68 152.851 17.9933 152.851 18.34C152.851 18.6867 152.918 19.0133 153.051 19.32C153.185 19.6267 153.371 19.8933 153.611 20.12C153.851 20.3333 154.131 20.5067 154.451 20.64C154.785 20.76 155.138 20.82 155.511 20.82Z" fill="white"/>
<path d="M162.774 16.18C162.774 15.4467 162.9 14.7533 163.154 14.1C163.407 13.4467 163.76 12.88 164.214 12.4C164.667 11.92 165.207 11.54 165.834 11.26C166.46 10.98 167.147 10.84 167.894 10.84C168.84 10.84 169.674 11.0533 170.394 11.48C171.114 11.9067 171.654 12.5 172.014 13.26L171.034 13.58C170.727 13.0067 170.287 12.56 169.714 12.24C169.154 11.9067 168.534 11.74 167.854 11.74C167.28 11.74 166.747 11.8533 166.254 12.08C165.76 12.3067 165.327 12.62 164.954 13.02C164.594 13.42 164.307 13.8933 164.094 14.44C163.88 14.9733 163.774 15.5533 163.774 16.18C163.774 16.8067 163.88 17.4 164.094 17.96C164.32 18.5067 164.614 18.9867 164.974 19.4C165.347 19.8 165.78 20.12 166.274 20.36C166.78 20.6 167.314 20.72 167.874 20.72C168.234 20.72 168.587 20.6667 168.934 20.56C169.294 20.4533 169.62 20.3133 169.914 20.14C170.22 19.9667 170.48 19.7667 170.694 19.54C170.92 19.3 171.074 19.0533 171.154 18.8L172.134 19.08C172 19.44 171.794 19.78 171.514 20.1C171.247 20.4067 170.927 20.6733 170.554 20.9C170.18 21.1267 169.767 21.3 169.314 21.42C168.86 21.5533 168.394 21.62 167.914 21.62C167.18 21.62 166.5 21.48 165.874 21.2C165.247 20.9067 164.7 20.5133 164.234 20.02C163.78 19.5133 163.42 18.9333 163.154 18.28C162.9 17.6267 162.774 16.9267 162.774 16.18Z" fill="white"/>
<path d="M181.912 21.42L177.852 15.86L175.392 18.12V21.42H174.392V6.82001H175.392V17.02L181.712 11.04H182.872L178.532 15.26L183.012 21.42H181.912Z" fill="white"/>
</svg>
