<svg width="184" height="23" viewBox="0 0 184 23" fill="none" xmlns="http://www.w3.org/2000/svg">
<path d="M0.830017 22V0.700002H10.61C11.65 0.700002 12.61 0.920002 13.49 1.36C14.37 1.78 15.12 2.34 15.74 3.04C16.38 3.72 16.88 4.51 17.24 5.41C17.6 6.29 17.78 7.18 17.78 8.08C17.78 9.32 17.51 10.48 16.97 11.56C16.43 12.62 15.68 13.49 14.72 14.17L19.22 22H12.62L8.87002 15.46H6.68002V22H0.830017ZM6.68002 10.36H10.37C10.73 10.36 11.06 10.16 11.36 9.76C11.68 9.36 11.84 8.8 11.84 8.08C11.84 7.34 11.66 6.78 11.3 6.4C10.94 6 10.58 5.8 10.22 5.8H6.68002V10.36Z" fill="#662D91"/>
<path d="M30.4105 22.18C28.7905 22.18 27.3205 21.87 26.0005 21.25C24.6805 20.63 23.5505 19.82 22.6105 18.82C21.6705 17.8 20.9405 16.64 20.4205 15.34C19.9005 14.04 19.6405 12.7 19.6405 11.32C19.6405 9.92 19.9105 8.57 20.4505 7.27C20.9905 5.97 21.7405 4.83 22.7005 3.85C23.6805 2.85 24.8305 2.06 26.1505 1.48C27.4905 0.880002 28.9505 0.580002 30.5305 0.580002C32.1505 0.580002 33.6205 0.890002 34.9405 1.51C36.2605 2.13 37.3905 2.95 38.3305 3.97C39.2705 4.99 39.9905 6.15 40.4905 7.45C41.0105 8.75 41.2705 10.08 41.2705 11.44C41.2705 12.84 41.0005 14.19 40.4605 15.49C39.9205 16.77 39.1705 17.91 38.2105 18.91C37.2505 19.89 36.1005 20.68 34.7605 21.28C33.4405 21.88 31.9905 22.18 30.4105 22.18ZM25.5805 11.38C25.5805 12.1 25.6805 12.8 25.8805 13.48C26.0805 14.14 26.3805 14.73 26.7805 15.25C27.1805 15.77 27.6805 16.19 28.2805 16.51C28.9005 16.83 29.6305 16.99 30.4705 16.99C31.3105 16.99 32.0405 16.83 32.6605 16.51C33.2805 16.17 33.7805 15.74 34.1605 15.22C34.5605 14.68 34.8505 14.07 35.0305 13.39C35.2305 12.71 35.3305 12.02 35.3305 11.32C35.3305 10.6 35.2305 9.91 35.0305 9.25C34.8305 8.57 34.5205 7.98 34.1005 7.48C33.7005 6.96 33.1905 6.55 32.5705 6.25C31.9705 5.93 31.2605 5.77 30.4405 5.77C29.6005 5.77 28.8705 5.93 28.2505 6.25C27.6505 6.57 27.1505 7 26.7505 7.54C26.3505 8.06 26.0505 8.66 25.8505 9.34C25.6705 10 25.5805 10.68 25.5805 11.38Z" fill="#662D91"/>
<path d="M43.7499 22V0.700002H49.5999V8.8L56.0799 0.700002H62.6799L54.9399 10.24L63.2199 22H56.4999L51.2199 14.17L49.5999 15.85V22H43.7499Z" fill="#662D91"/>
<path d="M73.7628 16.99C74.4428 16.99 75.0228 16.84 75.5028 16.54C75.9828 16.24 76.3728 15.85 76.6728 15.37C76.9728 14.87 77.1928 14.3 77.3328 13.66C77.4728 13.02 77.5428 12.35 77.5428 11.65V0.700002H83.3928V11.65C83.3928 13.13 83.2028 14.52 82.8228 15.82C82.4428 17.1 81.8528 18.21 81.0528 19.15C80.2528 20.09 79.2428 20.83 78.0228 21.37C76.8228 21.91 75.4028 22.18 73.7628 22.18C72.0628 22.18 70.6028 21.9 69.3828 21.34C68.1828 20.76 67.1928 19.99 66.4128 19.03C65.6328 18.07 65.0628 16.96 64.7028 15.7C64.3428 14.42 64.1628 13.07 64.1628 11.65V0.700002H70.0128V11.65C70.0128 12.35 70.0828 13.03 70.2228 13.69C70.3628 14.33 70.5828 14.9 70.8828 15.4C71.1828 15.88 71.5628 16.27 72.0228 16.57C72.5028 16.85 73.0828 16.99 73.7628 16.99Z" fill="#662D91"/>
<path d="M91.86 22V7.80001H101.1V8.72001H92.88V14.36H99.86V15.24H92.88V22H91.86Z" fill="#662D91"/>
<path d="M103.515 7.40001H104.535V19.94C104.535 20.3267 104.642 20.6333 104.855 20.86C105.082 21.0867 105.388 21.2 105.775 21.2C105.922 21.2 106.095 21.1867 106.295 21.16C106.508 21.12 106.702 21.0667 106.875 21L107.075 21.8C106.848 21.8933 106.568 21.9667 106.235 22.02C105.902 22.0867 105.615 22.12 105.375 22.12C104.815 22.12 104.362 21.9533 104.015 21.62C103.682 21.2733 103.515 20.8133 103.515 20.24V7.40001Z" fill="#662D91"/>
<path d="M111.171 22.2C110.691 22.2 110.244 22.12 109.831 21.96C109.417 21.7867 109.051 21.56 108.731 21.28C108.424 20.9867 108.184 20.6467 108.011 20.26C107.837 19.86 107.751 19.4333 107.751 18.98C107.751 18.5267 107.857 18.1133 108.071 17.74C108.284 17.3667 108.577 17.0467 108.951 16.78C109.337 16.5 109.797 16.2867 110.331 16.14C110.864 15.98 111.451 15.9 112.091 15.9C112.651 15.9 113.211 15.9533 113.771 16.06C114.344 16.1533 114.857 16.2867 115.311 16.46V15.44C115.311 14.4533 115.031 13.6733 114.471 13.1C113.911 12.5133 113.151 12.22 112.191 12.22C111.684 12.22 111.144 12.3267 110.571 12.54C110.011 12.7533 109.437 13.06 108.851 13.46L108.471 12.78C109.804 11.8733 111.071 11.42 112.271 11.42C113.524 11.42 114.511 11.7867 115.231 12.52C115.951 13.24 116.311 14.24 116.311 15.52V20.6C116.311 20.9333 116.457 21.1 116.751 21.1V22C116.684 22.0133 116.611 22.02 116.531 22.02C116.464 22.0333 116.404 22.04 116.351 22.04C116.084 22.04 115.871 21.9533 115.711 21.78C115.551 21.5933 115.457 21.3733 115.431 21.12V20.26C114.951 20.8867 114.337 21.3667 113.591 21.7C112.844 22.0333 112.037 22.2 111.171 22.2ZM111.371 21.4C112.144 21.4 112.851 21.2533 113.491 20.96C114.144 20.6667 114.644 20.28 114.991 19.8C115.204 19.52 115.311 19.2533 115.311 19V17.16C114.831 16.9733 114.331 16.8333 113.811 16.74C113.291 16.6467 112.751 16.6 112.191 16.6C111.671 16.6 111.197 16.66 110.771 16.78C110.344 16.8867 109.977 17.04 109.671 17.24C109.364 17.44 109.124 17.6867 108.951 17.98C108.791 18.26 108.711 18.5733 108.711 18.92C108.711 19.2667 108.777 19.5933 108.911 19.9C109.044 20.2067 109.231 20.4733 109.471 20.7C109.711 20.9133 109.991 21.0867 110.311 21.22C110.644 21.34 110.997 21.4 111.371 21.4Z" fill="#662D91"/>
<path d="M122.653 22.2C121.853 22.2 121.086 22.0667 120.353 21.8C119.62 21.5333 118.98 21.1333 118.433 20.6L118.933 19.92C119.493 20.4267 120.073 20.8 120.673 21.04C121.273 21.28 121.933 21.4 122.653 21.4C123.56 21.4 124.286 21.2133 124.833 20.84C125.393 20.4533 125.673 19.92 125.673 19.24C125.673 18.92 125.6 18.6533 125.453 18.44C125.32 18.2133 125.113 18.0267 124.833 17.88C124.553 17.72 124.206 17.58 123.793 17.46C123.38 17.34 122.9 17.2133 122.353 17.08C121.766 16.9467 121.253 16.8133 120.813 16.68C120.386 16.5467 120.033 16.3867 119.753 16.2C119.473 16.0133 119.26 15.7867 119.113 15.52C118.98 15.2533 118.913 14.9133 118.913 14.5C118.913 13.98 119.013 13.5267 119.213 13.14C119.413 12.7533 119.686 12.4333 120.033 12.18C120.393 11.9267 120.8 11.74 121.253 11.62C121.72 11.4867 122.213 11.42 122.733 11.42C123.546 11.42 124.266 11.56 124.893 11.84C125.52 12.1067 126.006 12.4533 126.353 12.88L125.793 13.42C125.446 13.02 124.993 12.72 124.433 12.52C123.886 12.32 123.3 12.22 122.673 12.22C122.286 12.22 121.92 12.26 121.573 12.34C121.24 12.42 120.946 12.5467 120.693 12.72C120.44 12.8933 120.24 13.12 120.093 13.4C119.946 13.6667 119.873 13.9867 119.873 14.36C119.873 14.6667 119.92 14.9133 120.013 15.1C120.12 15.2867 120.28 15.4467 120.493 15.58C120.72 15.7133 121.006 15.8333 121.353 15.94C121.7 16.0333 122.113 16.14 122.593 16.26C123.246 16.42 123.826 16.5733 124.333 16.72C124.84 16.8667 125.26 17.0467 125.593 17.26C125.94 17.4733 126.2 17.7267 126.373 18.02C126.56 18.3133 126.653 18.6867 126.653 19.14C126.653 20.0733 126.286 20.82 125.553 21.38C124.833 21.9267 123.866 22.2 122.653 22.2Z" fill="#662D91"/>
<path d="M137.482 22H136.482V16.2C136.482 13.6267 135.622 12.34 133.902 12.34C133.475 12.34 133.055 12.42 132.642 12.58C132.242 12.74 131.862 12.9667 131.502 13.26C131.155 13.5533 130.849 13.9 130.582 14.3C130.315 14.6867 130.115 15.1067 129.982 15.56V22H128.982V7.40001H129.982V14.08C130.409 13.2667 130.995 12.62 131.742 12.14C132.502 11.66 133.315 11.42 134.182 11.42C134.755 11.42 135.249 11.5267 135.662 11.74C136.075 11.9533 136.415 12.26 136.682 12.66C136.962 13.06 137.162 13.5467 137.282 14.12C137.415 14.68 137.482 15.3133 137.482 16.02V22Z" fill="#662D91"/>
<path d="M145.365 22.2C144.552 22.2 143.792 21.9867 143.085 21.56C142.379 21.1333 141.825 20.5867 141.425 19.92V22H140.505V7.40001H141.505V13.86C141.999 13.14 142.579 12.5533 143.245 12.1C143.925 11.6467 144.705 11.42 145.585 11.42C146.319 11.42 146.979 11.58 147.565 11.9C148.165 12.2067 148.665 12.62 149.065 13.14C149.479 13.6467 149.792 14.2267 150.005 14.88C150.232 15.52 150.345 16.1733 150.345 16.84C150.345 17.56 150.219 18.2467 149.965 18.9C149.712 19.54 149.359 20.1067 148.905 20.6C148.465 21.08 147.939 21.4667 147.325 21.76C146.725 22.0533 146.072 22.2 145.365 22.2ZM145.165 21.3C145.779 21.3 146.339 21.1733 146.845 20.92C147.352 20.6667 147.785 20.3333 148.145 19.92C148.519 19.4933 148.805 19.0133 149.005 18.48C149.219 17.9467 149.325 17.4 149.325 16.84C149.325 16.2533 149.225 15.6933 149.025 15.16C148.839 14.6133 148.565 14.1333 148.205 13.72C147.859 13.2933 147.439 12.9533 146.945 12.7C146.465 12.4467 145.932 12.32 145.345 12.32C144.905 12.32 144.492 12.4 144.105 12.56C143.719 12.7067 143.359 12.9067 143.025 13.16C142.705 13.4133 142.412 13.7067 142.145 14.04C141.892 14.3733 141.679 14.72 141.505 15.08V18.52C141.545 18.9067 141.692 19.2733 141.945 19.62C142.199 19.9533 142.499 20.2467 142.845 20.5C143.205 20.74 143.592 20.9333 144.005 21.08C144.419 21.2267 144.805 21.3 145.165 21.3Z" fill="#662D91"/>
<path d="M155.311 22.2C154.831 22.2 154.385 22.12 153.971 21.96C153.558 21.7867 153.191 21.56 152.871 21.28C152.565 20.9867 152.325 20.6467 152.151 20.26C151.978 19.86 151.891 19.4333 151.891 18.98C151.891 18.5267 151.998 18.1133 152.211 17.74C152.425 17.3667 152.718 17.0467 153.091 16.78C153.478 16.5 153.938 16.2867 154.471 16.14C155.005 15.98 155.591 15.9 156.231 15.9C156.791 15.9 157.351 15.9533 157.911 16.06C158.485 16.1533 158.998 16.2867 159.451 16.46V15.44C159.451 14.4533 159.171 13.6733 158.611 13.1C158.051 12.5133 157.291 12.22 156.331 12.22C155.825 12.22 155.285 12.3267 154.711 12.54C154.151 12.7533 153.578 13.06 152.991 13.46L152.611 12.78C153.945 11.8733 155.211 11.42 156.411 11.42C157.665 11.42 158.651 11.7867 159.371 12.52C160.091 13.24 160.451 14.24 160.451 15.52V20.6C160.451 20.9333 160.598 21.1 160.891 21.1V22C160.825 22.0133 160.751 22.02 160.671 22.02C160.605 22.0333 160.545 22.04 160.491 22.04C160.225 22.04 160.011 21.9533 159.851 21.78C159.691 21.5933 159.598 21.3733 159.571 21.12V20.26C159.091 20.8867 158.478 21.3667 157.731 21.7C156.985 22.0333 156.178 22.2 155.311 22.2ZM155.511 21.4C156.285 21.4 156.991 21.2533 157.631 20.96C158.285 20.6667 158.785 20.28 159.131 19.8C159.345 19.52 159.451 19.2533 159.451 19V17.16C158.971 16.9733 158.471 16.8333 157.951 16.74C157.431 16.6467 156.891 16.6 156.331 16.6C155.811 16.6 155.338 16.66 154.911 16.78C154.485 16.8867 154.118 17.04 153.811 17.24C153.505 17.44 153.265 17.6867 153.091 17.98C152.931 18.26 152.851 18.5733 152.851 18.92C152.851 19.2667 152.918 19.5933 153.051 19.9C153.185 20.2067 153.371 20.4733 153.611 20.7C153.851 20.9133 154.131 21.0867 154.451 21.22C154.785 21.34 155.138 21.4 155.511 21.4Z" fill="#662D91"/>
<path d="M162.774 16.76C162.774 16.0267 162.9 15.3333 163.154 14.68C163.407 14.0267 163.76 13.46 164.214 12.98C164.667 12.5 165.207 12.12 165.834 11.84C166.46 11.56 167.147 11.42 167.894 11.42C168.84 11.42 169.674 11.6333 170.394 12.06C171.114 12.4867 171.654 13.08 172.014 13.84L171.034 14.16C170.727 13.5867 170.287 13.14 169.714 12.82C169.154 12.4867 168.534 12.32 167.854 12.32C167.28 12.32 166.747 12.4333 166.254 12.66C165.76 12.8867 165.327 13.2 164.954 13.6C164.594 14 164.307 14.4733 164.094 15.02C163.88 15.5533 163.774 16.1333 163.774 16.76C163.774 17.3867 163.88 17.98 164.094 18.54C164.32 19.0867 164.614 19.5667 164.974 19.98C165.347 20.38 165.78 20.7 166.274 20.94C166.78 21.18 167.314 21.3 167.874 21.3C168.234 21.3 168.587 21.2467 168.934 21.14C169.294 21.0333 169.62 20.8933 169.914 20.72C170.22 20.5467 170.48 20.3467 170.694 20.12C170.92 19.88 171.074 19.6333 171.154 19.38L172.134 19.66C172 20.02 171.794 20.36 171.514 20.68C171.247 20.9867 170.927 21.2533 170.554 21.48C170.18 21.7067 169.767 21.88 169.314 22C168.86 22.1333 168.394 22.2 167.914 22.2C167.18 22.2 166.5 22.06 165.874 21.78C165.247 21.4867 164.7 21.0933 164.234 20.6C163.78 20.0933 163.42 19.5133 163.154 18.86C162.9 18.2067 162.774 17.5067 162.774 16.76Z" fill="#662D91"/>
<path d="M181.912 22L177.852 16.44L175.392 18.7V22H174.392V7.40001H175.392V17.6L181.712 11.62H182.872L178.532 15.84L183.012 22H181.912Z" fill="#662D91"/>
</svg>
